<?xml version="1.0" encoding="utf-8"?>
<!-- Generator: Adobe Illustrator 23.0.1, SVG Export Plug-In . SVG Version: 6.00 Build 0)  -->
<svg version="1.1" id="Warstwa_1" xmlns="http://www.w3.org/2000/svg" xmlns:xlink="http://www.w3.org/1999/xlink" x="0px" y="0px"
	 viewBox="0 0 638.1 760.3" style="enable-background:new 0 0 638.1 760.3;" xml:space="preserve">
<path d="M401.9,760.3H111.4C49.9,760.3,0,710.4,0,649V238.1c0-61.4,49.9-111.4,111.4-111.4h290.6c61.4,0,111.4,49.9,111.4,111.4V649
	C513.3,710.4,463.4,760.3,401.9,760.3z M111.4,190.7c-26.2,0-47.4,21.1-47.4,47.4V649c0,26.2,21.1,47.4,47.4,47.4h290.6
	c26.2,0,47.4-21.1,47.4-47.4V238.1c0-26.2-21.1-47.4-47.4-47.4H111.4L111.4,190.7z"/>
<path d="M606.1,593.3c-17.9,0-32-14.1-32-32v-377c0-66.6-53.8-120.3-120.3-120.3h-256c-17.9,0-32-14.1-32-32s14.1-32,32-32h256
	c101.8,0,184.3,82.6,184.3,184.3v377C638.1,578.6,624,593.3,606.1,593.3z"/>
</svg>
